<?xml version="1.0" encoding="UTF-8"?>
<svg width="15" height="15" viewBox="0 0 15 15" xmlns="http://www.w3.org/2000/svg">
    <path d="M5.44 9.192v1.088L2.24 9V7.912l3.2 1.28zm0-3.328v1.088l-3.2-1.28V4.584l3.2 1.28zM14.048.328c.234668.128001.352.351998.352.672v10.24c0 .362668-.170665.607999-.512.736l-6.368 2.56c-.085334.021333-.138667.032-.16.032-.021333 0-.048.005333-.08.016s-.058667.016-.08.016c-.021333 0-.048-.005333-.08-.016s-.058667-.016-.08-.016l-.16-.032-6.368-2.56C.170665 11.847999 0 11.602668 0 11.24V1C0 .679998.117332.456001.352.328.586668.157332.831999.125333 1.088.232L7.2 2.696 13.312.232c.256001-.106667.501332-.074668.736.096zM6.4 12.936v-8.96L1.28 1.928v8.96l5.12 2.048zm6.72-2.048v-8.96L8 3.976v8.96l5.12-2.048zm-.96-2.976V9l-3.2 1.28V9.192l3.2-1.28zm0-3.328v1.088l-3.2 1.28V5.864l3.2-1.28z" fill="#55636F" fill-rule="evenodd"/>
</svg>
