<?xml version="1.0" encoding="UTF-8"?>
<svg width="16" height="14" viewBox="0 0 16 14" xmlns="http://www.w3.org/2000/svg">
    <path d="M14.864 11.824V4.976c-.192001.213334-.399999.405332-.624.576-1.589341 1.226673-2.858662 2.234663-3.808 3.024-.298668.256001-.543999.453333-.736.592-.192001.138667-.447998.287999-.768.448s-.623999.229333-.912.208h-.032c-.277335 0-.581332-.069333-.912-.208-.330668-.138667-.586666-.287999-.768-.448s-.426665-.357332-.736-.592c-.938671-.789337-2.207992-1.797327-3.808-3.024-.224001-.170668-.431999-.362666-.624-.576v6.848c0 .074667.032.144.096.208s.128.090667.192.08h13.152c.074667 0 .138666-.026666.192-.08.053334-.053334.085333-.122666.096-.208zm0-9.376v-.224L14.832 2l-.048-.08c-.032-.053334-.058667-.074667-.08-.064-.021333.010667-.064 0-.128-.032H1.424c-.074667 0-.138666.032-.192.096-.053334.064-.085333.128-.096.192 0 1.002672.442662 1.850663 1.328 2.544 1.141339.896004 2.33066 1.834662 3.568 2.816.042667.032.149332.122666.32.272.170668.149334.304.261333.4.336.096.074667.229332.165333.4.272.170668.106667.319999.192.448.256.128001.064.255999.090667.384.08h.032c.117334 0 .245333-.026666.384-.08.138667-.053334.287999-.138666.448-.256s.293333-.208.4-.272c.106667-.064.239999-.175999.4-.336.160001-.160001.266666-.250667.32-.272 1.23734-.981338 2.431994-1.919996 3.584-2.816.320002-.256001.618665-.602664.896-1.04.277335-.437336.416-.826665.416-1.168zM16 2.112v9.712c0 .394669-.138665.730665-.416 1.008s-.613331.421333-1.008.432H1.424c-.384002 0-.719999-.143999-1.008-.432-.288001-.288001-.426667-.623998-.416-1.008V2.112c0-.394669.138665-.730665.416-1.008S1.029331.688 1.424.688h13.152c.394669 0 .730665.138665 1.008.416S16 1.717331 16 2.112z" fill="#55636F" fill-rule="evenodd"/>
</svg>
