<?xml version="1.0" encoding="UTF-8"?>
<svg width="16" height="17" viewBox="0 0 16 17" xmlns="http://www.w3.org/2000/svg">
    <path d="M14.416 7.911c.385335 0 .708332.130332.969.391s.396667.577998.408.952c0 .612003-.294664 1.025666-.884 1.241l-1.632.561.527 1.581c.045334.136001.068.283333.068.442 0 .374002-.135999.696999-.408.969-.272001.272001-.589332.408-.952.408-.294668 0-.566665-.084999-.816-.255-.249335-.170001-.413666-.396665-.493-.68l-.527-1.564-2.941 1.003.527 1.547c.045334.158667.068.311666.068.459 0 .374002-.130332.696999-.391.969-.260668.272001-.583665.408-.969.408-.306002 0-.577999-.084999-.816-.255-.238001-.170001-.402333-.402332-.493-.697l-.527-1.547-1.445.51c-.192668.056667-.351333.085-.476.085-.385335 0-.708332-.124665-.969-.374s-.391-.572331-.391-.969c0-.294668.090666-.560999.272-.799.181334-.238001.407999-.407999.68-.51l1.479-.493-1.003-2.975-1.479.51c-.158667.056667-.311666.085-.459.085-.374002 0-.691332-.130332-.952-.391S0 7.945002 0 7.571c0-.294668.084999-.566665.255-.816.170001-.249335.396665-.413666.68-.493l1.496-.51-.51-1.496c-.045334-.158667-.068-.311666-.068-.459 0-.374002.130332-.696999.391-.969.260668-.272001.583665-.408.969-.408.294668 0 .566665.090666.816.272.249335.181334.413666.407999.493.68l.51 1.513 2.941-1.003-.51-1.513c-.045334-.147334-.068-.294666-.068-.442 0-.374002.130332-.696999.391-.969.260668-.272001.583665-.408.969-.408.294668 0 .566665.084999.816.255.249335.170001.419333.396665.51.68l.493 1.53 1.547-.527c.124667-.034.260666-.051.408-.051.374002 0 .696999.124665.969.374.272001.249335.408.560998.408.935 0 .283335-.096332.538332-.289.765-.192668.226668-.424999.390999-.697.493l-1.496.51 1.003 3.009 1.547-.544c.147334-.045334.294666-.068.442-.068zm-7.531 2.482l2.941-.986-1.003-2.992-2.941 1.02 1.003 2.958z" fill="#000" fill-rule="evenodd"/>
</svg>
