<?xml version="1.0" encoding="UTF-8"?>
<svg width="36px" height="36px" viewBox="0 0 36 36" version="1.1" xmlns="http://www.w3.org/2000/svg" xmlns:xlink="http://www.w3.org/1999/xlink">
    <g id="Styles" stroke="none" stroke-width="1" fill="none" fill-rule="evenodd">
        <g transform="translate(-385.000000, -267.000000)">
            <circle id="Oval" fill="#4CB279" opacity="0.4" cx="403" cy="285" r="18"></circle>
            <path d="M400.976,293 C400.431997,293 399.984002,292.776002 399.632,292.328 L395.312,286.664 C395.055999,286.279998 394.96,285.864002 395.024,285.416 C395.088,284.967998 395.295998,284.600001 395.648,284.312 C396.000002,284.023999 396.407998,283.912 396.872,283.976 C397.336002,284.04 397.711999,284.263998 398,284.648 L400.832,288.344 L407.936,276.968 C408.192001,276.583998 408.535998,276.344 408.968,276.248 C409.400002,276.152 409.823998,276.215999 410.24,276.44 C410.624002,276.696001 410.864,277.039998 410.96,277.472 C411.056,277.904002 410.992001,278.327998 410.768,278.744 L402.368,292.184 C402.047998,292.696003 401.600003,292.952 401.024,292.952 L400.976,293 Z" fill="#FFFFFF"></path>
        </g>
    </g>
</svg>
